# xmcd
#
# Track frame offsets:
#	150
#	21663
#	43030
#	61886
#	78414
#	90764
#	114470
#	131211
#	158361
#	173815
#
# Disc length: 2575 seconds
# Revision: 0
# Processed by: cddbd v1.5.2PL0 Copyright (c) Steve Scherf et al.
# Submitted via: dBpowerAMP V12.0
#
DISCID=750a0d0a
DTITLE=Jules Boult - Almost Alone
DYEAR=2012
DGENRE=Jazz Blues Vocal
TTITLE0=Stayin' Dry in The Rain
TTITLE1=So Long Goodnight
TTITLE2=May You
TTITLE3=The Glory of Love
TTITLE4=Glad to be Blue
TTITLE5=Yours Sincerely
TTITLE6=Happy as Can be
TTITLE7=Hallelujah
TTITLE8=Everyone's on Top...But Not me
TTITLE9=Wonderful Tonight
EXTD=
EXTT0=
EXTT1=
EXTT2=
EXTT3=
EXTT4=
EXTT5=
EXTT6=
EXTT7=
EXTT8=
EXTT9=
PLAYORDER=
